<svg width="620" height="300" viewBox="0 0 620 300" fill="none" xmlns="http://www.w3.org/2000/svg">
<g clip-path="url(#clip0_200_370)" filter="url(#filter0_d_200_370)">
<path d="M264.943 36.5666L87.4505 148.768C41.3846 177.889 13.309 228.454 12.9479 282.951L10.7479 614.928C10.2977 682.861 52.7947 743.671 116.742 766.6L359.145 853.514C407.935 871.008 462.177 863.784 504.687 834.13L668.956 719.54C690.883 704.245 708.627 683.699 720.568 659.78L820.947 458.711C837.578 425.398 842.07 387.328 833.649 351.059L812.671 260.708C798.808 200.998 752.048 154.457 692.274 140.873L566.439 112.277C546.73 107.798 528.048 99.6254 511.382 88.1918L440.95 39.873C388.214 3.69455 319 2.39429 264.943 36.5666Z" fill="#4C8E4A"/>
</g>
<defs>
<filter id="filter0_d_200_370" x="-4" y="0" width="628" height="308" filterUnits="userSpaceOnUse" color-interpolation-filters="sRGB">
<feFlood flood-opacity="0" result="BackgroundImageFix"/>
<feColorMatrix in="SourceAlpha" type="matrix" values="0 0 0 0 0 0 0 0 0 0 0 0 0 0 0 0 0 0 127 0" result="hardAlpha"/>
<feOffset dy="4"/>
<feGaussianBlur stdDeviation="2"/>
<feComposite in2="hardAlpha" operator="out"/>
<feColorMatrix type="matrix" values="0 0 0 0 0 0 0 0 0 0 0 0 0 0 0 0 0 0 0.25 0"/>
<feBlend mode="normal" in2="BackgroundImageFix" result="effect1_dropShadow_200_370"/>
<feBlend mode="normal" in="SourceGraphic" in2="effect1_dropShadow_200_370" result="shape"/>
</filter>
<clipPath id="clip0_200_370">
<rect width="620" height="300" fill="white"/>
</clipPath>
</defs>
</svg>
