<svg width="28" height="22" viewBox="0 0 28 22" fill="none" xmlns="http://www.w3.org/2000/svg">
<path d="M0.246094 22V21.6945H0.643316C1.19332 21.6945 1.65165 21.613 2.01832 21.45C2.40535 21.2871 2.69054 21.0426 2.87387 20.7167C3.05721 20.3908 3.14887 19.9834 3.14887 19.4945V2.56668C3.14887 2.09817 3.05721 1.71113 2.87387 1.40557C2.69054 1.10002 2.40535 0.875944 2.01832 0.733351C1.65165 0.570387 1.19332 0.488905 0.643316 0.488905H0.246094V0.18335H8.83221C11.3989 0.18335 13.2933 0.75372 14.5155 1.89446C15.7378 3.01483 16.3489 4.57317 16.3489 6.56946C16.3489 7.48613 16.2063 8.36206 15.9211 9.19724C15.6359 10.0121 15.1674 10.7454 14.5155 11.3972C13.8841 12.0491 13.0387 12.5685 11.9794 12.9556C10.9405 13.3222 9.66739 13.5056 8.15998 13.5056H6.23498V19.4945C6.23498 19.9834 6.32665 20.3908 6.50998 20.7167C6.69332 21.0426 6.96832 21.2871 7.33498 21.45C7.72202 21.613 8.19054 21.6945 8.74054 21.6945H9.13776V22H0.246094ZM7.85443 13.2C8.79147 13.2 9.58591 13.0778 10.2378 12.8334C10.8896 12.5889 11.4192 12.2121 11.8267 11.7028C12.2544 11.1732 12.56 10.5009 12.7433 9.68613C12.947 8.85094 13.0489 7.85279 13.0489 6.69168C13.0489 5.20465 12.8859 4.01298 12.56 3.11668C12.2544 2.20002 11.7554 1.53798 11.0628 1.13057C10.3702 0.702794 9.4535 0.488905 8.31276 0.488905H6.23498V13.2H7.85443Z" fill="white"/>
<path d="M10.4369 22V21.6945H10.8341C11.3841 21.6945 11.8424 21.613 12.2091 21.45C12.5961 21.2871 12.8813 21.0426 13.0646 20.7167C13.248 20.3908 13.3396 19.9834 13.3396 19.4945V2.56668C13.3396 2.09817 13.248 1.71113 13.0646 1.40557C12.8813 1.10002 12.5961 0.875944 12.2091 0.733351C11.8424 0.570387 11.3841 0.488905 10.8341 0.488905H10.4369V0.18335H25.8063L25.9896 5.53057H25.6841L25.623 4.52224C25.5619 3.50372 25.3887 2.69909 25.1035 2.10835C24.8183 1.51761 24.3702 1.10002 23.7591 0.855572C23.1683 0.611127 22.3535 0.488905 21.3146 0.488905H16.4257V10.4195H24.0952V10.725H16.4257V21.6945H22.0785C23.1785 21.6945 24.0544 21.5722 24.7063 21.3278C25.3581 21.0834 25.8267 20.6658 26.1119 20.075C26.4174 19.4843 26.6007 18.6796 26.6619 17.6611L26.723 16.6528H27.0285L26.8146 22H10.4369Z" fill="white"/>
</svg>
