<svg width="94" height="16" viewBox="0 0 94 16" fill="none" xmlns="http://www.w3.org/2000/svg">
<path d="M6.43359 10.6934H2.54492V7.78223H6.43359C6.96354 7.78223 7.39323 7.69271 7.72266 7.51367C8.05208 7.33464 8.29199 7.08757 8.44238 6.77246C8.59993 6.4502 8.67871 6.08854 8.67871 5.6875C8.67871 5.25781 8.59993 4.86035 8.44238 4.49512C8.29199 4.12988 8.05208 3.83626 7.72266 3.61426C7.39323 3.38509 6.96354 3.27051 6.43359 3.27051H3.96289V16H0.192383V0.359375H6.43359C7.68685 0.359375 8.76465 0.588542 9.66699 1.04688C10.5765 1.50521 11.2747 2.13542 11.7617 2.9375C12.2487 3.73242 12.4922 4.64193 12.4922 5.66602C12.4922 6.67578 12.2487 7.55664 11.7617 8.30859C11.2747 9.06055 10.5765 9.64779 9.66699 10.0703C8.76465 10.4857 7.68685 10.6934 6.43359 10.6934ZM25.5061 13.0996V16H17.1702V13.0996H25.5061ZM18.513 0.359375V16H14.7425V0.359375H18.513ZM24.4319 6.56836V9.37207H17.1702V6.56836H24.4319ZM25.5384 0.359375V3.27051H17.1702V0.359375H25.5384ZM35.0611 0.359375V16H31.2906V0.359375H35.0611ZM39.7662 0.359375V3.27051H26.6929V0.359375H39.7662ZM52.1463 14.3135V16H43.8641V14.3135H52.1463ZM44.283 0.359375V16H42.2098V0.359375H44.283ZM51.0506 7.08398V8.77051H43.8641V7.08398H51.0506ZM52.0389 0.359375V2.05664H43.8641V0.359375H52.0389ZM59.9825 13.626L64.5909 0.359375H66.8361L61.046 16H59.4454L59.9825 13.626ZM55.6749 0.359375L60.2404 13.626L60.8097 16H59.2091L53.4298 0.359375H55.6749ZM79.098 14.3135V16H70.8158V14.3135H79.098ZM71.2348 0.359375V16H69.1615V0.359375H71.2348ZM78.0023 7.08398V8.77051H70.8158V7.08398H78.0023ZM78.9906 0.359375V2.05664H70.8158V0.359375H78.9906ZM81.8854 0.359375H87.0632C88.2376 0.359375 89.2295 0.538411 90.0387 0.896484C90.8552 1.25456 91.4746 1.78451 91.8971 2.48633C92.3268 3.18099 92.5417 4.03678 92.5417 5.05371C92.5417 5.76986 92.3949 6.42513 92.1012 7.01953C91.8148 7.60677 91.3994 8.10807 90.8552 8.52344C90.318 8.93164 89.6735 9.236 88.9216 9.43652L88.3415 9.66211H83.4753L83.4538 7.97559H87.1276C87.8724 7.97559 88.4919 7.84668 88.986 7.58887C89.4802 7.32389 89.8526 6.9694 90.1032 6.52539C90.3539 6.08138 90.4792 5.59082 90.4792 5.05371C90.4792 4.45215 90.361 3.92578 90.1247 3.47461C89.8884 3.02344 89.516 2.67611 89.0075 2.43262C88.5062 2.18197 87.8581 2.05664 87.0632 2.05664H83.9587V16H81.8854V0.359375ZM91.027 16L87.2243 8.91016L89.3835 8.89941L93.2399 15.8711V16H91.027Z" fill="black"/>
</svg>
