<svg width="769" height="616" viewBox="0 0 769 616" fill="none" xmlns="http://www.w3.org/2000/svg">
<circle cx="236.037" cy="597.966" r="4.01667" transform="rotate(41.1195 236.037 597.966)" fill="#F3F2F2"/>
<circle cx="236.361" cy="586.252" r="4.01667" transform="rotate(41.1195 236.361 586.252)" fill="#F3F2F2"/>
<circle cx="226.849" cy="577.95" r="4.01667" transform="rotate(41.1195 226.849 577.95)" fill="#F3F2F2"/>
<circle cx="214.855" cy="579.476" r="4.01667" transform="rotate(41.1195 214.855 579.476)" fill="#F3F2F2"/>
<path fill-rule="evenodd" clip-rule="evenodd" d="M229.558 587.933C232.462 593.006 231.589 601.75 227.745 606.154V606.154C224.88 609.436 219.896 609.774 216.613 606.909V606.909C214.126 604.738 211.103 602.098 208.616 599.928V599.928C205.333 597.062 204.995 592.078 207.861 588.795V588.795C211.705 584.392 220.251 582.346 225.669 584.539C226.463 584.86 227.217 585.317 227.897 585.911C228.578 586.505 229.132 587.191 229.558 587.933Z" fill="#F3F2F2"/>
<circle cx="675.454" cy="427.591" r="4.01667" transform="rotate(72.0735 675.454 427.591)" fill="#F3F2F2"/>
<circle cx="681.756" cy="417.713" r="4.01667" transform="rotate(72.0735 681.756 417.713)" fill="#F3F2F2"/>
<circle cx="677.872" cy="405.701" r="4.01667" transform="rotate(72.0735 677.872 405.701)" fill="#F3F2F2"/>
<circle cx="666.799" cy="400.84" r="4.01667" transform="rotate(72.0735 666.799 400.84)" fill="#F3F2F2"/>
<path fill-rule="evenodd" clip-rule="evenodd" d="M675.059 415.656C674.941 421.5 669.695 428.55 664.133 430.349V430.349C659.988 431.69 655.539 429.416 654.198 425.27V425.27C653.182 422.13 651.947 418.311 650.931 415.17V415.17C649.589 411.024 651.863 406.576 656.009 405.235V405.235C661.571 403.436 669.952 406.077 673.47 410.745C673.985 411.428 674.397 412.207 674.675 413.067C674.954 413.927 675.076 414.8 675.059 415.656Z" fill="#F3F2F2"/>
<circle cx="511.584" cy="507.921" r="8.21591" transform="rotate(26.1318 511.584 507.921)" fill="#F3F2F2"/>
<circle cx="506.027" cy="484.605" r="8.21591" transform="rotate(26.1318 506.027 484.605)" fill="#F3F2F2"/>
<circle cx="482.845" cy="473.232" r="8.21591" transform="rotate(26.1318 482.845 473.232)" fill="#F3F2F2"/>
<circle cx="459.951" cy="482.591" r="8.21591" transform="rotate(26.1318 459.951 482.591)" fill="#F3F2F2"/>
<path fill-rule="evenodd" clip-rule="evenodd" d="M496.715 496.223C500.235 503.986 501.966 514.52 501.108 523C500.921 524.856 500.406 526.711 499.536 528.484C495.61 536.486 485.941 539.791 477.939 535.865V535.865C471.878 532.891 464.507 529.275 458.445 526.302V526.302C450.443 522.376 447.139 512.707 451.064 504.705C451.934 502.932 453.086 501.39 454.439 500.105C460.621 494.237 470.011 489.158 478.305 487.191C481.819 486.357 485.633 486.692 489.128 488.407C492.624 490.122 495.223 492.933 496.715 496.223Z" fill="#F3F2F2"/>
<circle cx="749.584" cy="211.921" r="8.21591" transform="rotate(26.1318 749.584 211.921)" fill="#F3F2F2"/>
<circle cx="744.027" cy="188.605" r="8.21591" transform="rotate(26.1318 744.027 188.605)" fill="#F3F2F2"/>
<circle cx="720.845" cy="177.232" r="8.21591" transform="rotate(26.1318 720.845 177.232)" fill="#F3F2F2"/>
<circle cx="697.951" cy="186.591" r="8.21591" transform="rotate(26.1318 697.951 186.591)" fill="#F3F2F2"/>
<path fill-rule="evenodd" clip-rule="evenodd" d="M734.715 200.223C738.235 207.986 739.966 218.52 739.108 227C738.921 228.856 738.406 230.711 737.536 232.484C733.61 240.486 723.941 243.791 715.939 239.865V239.865C709.878 236.891 702.507 233.275 696.445 230.302V230.302C688.443 226.376 685.139 216.707 689.064 208.705C689.934 206.932 691.086 205.39 692.439 204.105C698.621 198.237 708.011 193.158 716.305 191.191C719.819 190.357 723.633 190.692 727.128 192.407C730.624 194.122 733.223 196.933 734.715 200.223Z" fill="#F3F2F2"/>
<g filter="url(#filter0_d_214_63)">
<rect x="15" y="15" width="90" height="90" rx="28" fill="black"/>
<path d="M34.9926 79.6875V79.8375H35.1426H51.6952H51.8452V79.6875V79.1406V78.9906H51.6952H50.9558C49.946 78.9906 49.0945 78.8468 48.3968 78.5646C47.7414 78.2843 47.2561 77.8673 46.9329 77.3149C46.6084 76.7603 46.4415 76.0592 46.4415 75.2031V64.6344H49.875C52.6919 64.6344 55.0794 64.3051 57.0335 63.6421L57.035 63.6415C57.8844 63.3431 58.6621 63.0006 59.3674 62.6136V75.2031C59.3674 76.0592 59.2004 76.7603 58.876 77.3149C58.5539 77.8654 58.0511 78.2829 57.3565 78.5641L57.3565 78.5641L57.3538 78.5652C56.6955 78.8465 55.8639 78.9906 54.8531 78.9906H54.1136H53.9636V79.1406V79.6875V79.8375H54.1136H84.6024H84.7463L84.7523 79.6937L85.1504 70.1234L85.1569 69.9672H85.0006H84.4317H84.2909L84.282 70.1078L84.1683 71.9124L84.1683 71.9125C84.0552 73.724 83.7166 75.1402 83.162 76.1711L83.1619 76.1711L83.16 76.1749C82.648 77.1946 81.8075 77.9175 80.6266 78.3433C79.4362 78.7725 77.825 78.9906 75.7857 78.9906H65.4125V59.6578H79.5399H79.6899V59.5078V58.9609V58.8109H79.5399H65.4125V41.3375H74.3636C76.2891 41.3375 77.7843 41.5557 78.8587 41.9831L78.8603 41.9838C79.9643 42.4083 80.7693 43.1304 81.2829 44.1532C81.8012 45.1854 82.1212 46.603 82.2343 48.4156L82.2343 48.4157L82.348 50.2204L82.3569 50.3609H82.4977H83.0666H83.222L83.2165 50.2056L82.8752 40.6353L82.87 40.4906H82.7253H54.1136H53.9636V40.6242C53.0712 40.5351 52.1254 40.4906 51.1264 40.4906H35.1426H34.9926V40.6406V41.1875V41.3375H35.1426H35.882C36.8929 41.3375 37.7245 41.4816 38.3828 41.7629L38.3827 41.7632L38.3917 41.7664C39.0863 42.0125 39.587 42.3946 39.9072 42.9075C40.2298 43.4244 40.3964 44.0875 40.3964 44.9063V75.2031C40.3964 76.0592 40.2294 76.7603 39.905 77.3149C39.5829 77.8654 39.0801 78.2829 38.3855 78.5641L38.3828 78.5652C37.7245 78.8465 36.8929 78.9906 35.882 78.9906H35.1426H34.9926V79.1406V79.6875ZM56.586 61.1613L56.5856 61.1619C55.8457 62.051 54.8828 62.7109 53.6921 63.1401C52.4996 63.5701 51.0389 63.7875 49.3062 63.7875H46.4415V41.3375H50.1594C52.2667 41.3375 53.9438 41.7176 55.2022 42.4649L55.2022 42.4649L55.205 42.4665C56.4572 43.1747 57.3653 44.3273 57.9243 45.9398L57.9243 45.9398L57.9257 45.9437C58.5235 47.5242 58.8261 49.6368 58.8261 52.2891C58.8261 54.3588 58.6372 56.1322 58.2619 57.6115L58.2613 57.6143C57.9242 59.0544 57.3644 60.2348 56.586 61.1613Z" fill="white" stroke="white" stroke-width="0.3"/>
</g>
<path d="M35.574 186.13H25.8V179.056H35.574V186.13ZM42.594 166.474H35.574V173.548H25.8V166.474H18.78V191.746H42.594V166.474ZM31.524 195.904H24.396V211.78H58.254V206.11H31.524V195.904ZM56.472 176.95V162.91H49.344V199.522H56.472V182.782H63.06V176.95H56.472ZM75.7458 186.292H90.8118V167.068H68.6178V172.738H83.7918V180.676H68.7258V201.682H72.7218C80.1738 201.682 86.4918 201.52 93.8358 200.386L93.2958 194.554C87.0858 195.472 81.7398 195.742 75.7458 195.796V186.292ZM101.45 162.856V173.44H93.2958V179.164H101.45V186.94H93.1878V192.664H101.45V212.752H108.632V162.856H101.45ZM139.03 207.298C132.388 207.298 128.986 206.164 128.986 203.572C128.986 200.98 132.388 199.792 139.03 199.792C145.672 199.792 149.074 200.98 149.074 203.572C149.074 206.164 145.672 207.298 139.03 207.298ZM139.03 194.392C128.284 194.392 121.804 197.686 121.804 203.572C121.804 209.404 128.284 212.698 139.03 212.698C149.776 212.698 156.31 209.404 156.31 203.572C156.31 197.686 149.776 194.392 139.03 194.392ZM142.756 186.292V182.188H156.58V176.518H129.256V170.686H156.31V165.016H122.182V182.188H135.628V186.292H116.728V191.962H161.71V186.292H142.756ZM198.587 174.52H178.877V169.822H198.587V174.52ZM205.553 164.368H171.911V179.974H205.553V164.368ZM211.277 188.236V182.62H166.349V188.236H185.195V191.368H171.479V196.606H198.803V199.198H171.533V212.266H207.119V206.92H178.607V204.112H205.823V191.368H192.323V188.236H211.277ZM230.744 167.662V173.332H246.458C246.242 175.708 245.864 177.868 245.378 179.974L228.098 180.946L229.016 186.94L243.218 185.644C240.356 191.098 235.55 195.688 227.828 199.738L231.716 205.138C249.536 195.796 253.532 182.944 253.532 167.662H230.744ZM262.712 162.91V181.972H253.424V187.75H262.712V212.644H269.84V162.91H262.712ZM310.605 179.704H290.139V170.902H310.605V179.704ZM317.571 165.232H283.119V185.32H317.571V165.232ZM322.971 190.612H277.935V196.282H288.249V212.806H295.323V196.282H305.745V212.806H312.873V196.282H322.971V190.612ZM337.277 167.608H330.203V200.386H334.631C342.191 200.386 350.453 199.846 358.931 198.064L358.175 192.124C350.885 193.582 343.811 194.122 337.277 194.284V167.608ZM362.009 162.856V212.59H369.137V162.856H362.009ZM387.061 186.454H403.045V180.892H387.061V172.792H405.097V167.014H379.933V201.412H384.253C393.163 201.412 400.129 201.196 407.905 200.008L407.257 194.338C400.453 195.364 394.459 195.634 387.061 195.688V186.454ZM411.523 162.91V212.698H418.705V162.91H411.523ZM58.902 243.612H54.636V276.822H58.902V243.612ZM39.408 257.004V260.622H45.672V272.34H49.83V244.638H45.672V257.004H39.408ZM26.664 251.334H32.82V266.4C30.768 266.508 28.662 266.562 26.664 266.616V251.334ZM42.108 265.644C40.488 265.86 38.706 266.022 36.87 266.13V251.334H41.028V247.77H18.456V251.334H22.614V266.67C20.778 266.67 19.158 266.67 17.646 266.67L18.132 270.396C24.612 270.396 34.656 270.234 42.378 268.938L42.108 265.644ZM44.916 274.662H40.488V276.228C40.488 282.33 32.496 287.19 23.964 288.378L25.638 291.834C32.874 290.7 39.732 287.19 42.702 282.006C45.672 287.19 52.53 290.7 59.874 291.834L61.494 288.378C52.908 287.19 44.916 282.33 44.916 276.228V274.662ZM78.4998 277.254C74.6118 277.254 72.1818 272.34 72.1818 264.402C72.1818 256.626 74.6118 251.712 78.4998 251.712C82.2798 251.712 84.7638 256.626 84.7638 264.402C84.7638 272.34 82.2798 277.254 78.4998 277.254ZM94.8618 262.404H88.7598C88.2198 253.278 84.3318 247.608 78.4998 247.608C72.1818 247.608 68.1318 254.088 68.1318 264.402C68.1318 274.878 72.1818 281.358 78.4998 281.358C84.4398 281.358 88.3818 275.526 88.7598 266.022H94.8618V289.62H99.0738V244.638H94.8618V262.404ZM104.474 243.558V291.996H108.686V243.558H104.474ZM137.032 276.228H123.532V263.484H137.032V276.228ZM152.692 243.558V261.54H141.352V247.392H137.032V259.974H123.532V247.392H119.158V279.846H141.352V265.104H152.692V292.104H157.12V243.558H152.692Z" fill="#222222"/>
<defs>
<filter id="filter0_d_214_63" x="0" y="0" width="120" height="120" filterUnits="userSpaceOnUse" color-interpolation-filters="sRGB">
<feFlood flood-opacity="0" result="BackgroundImageFix"/>
<feColorMatrix in="SourceAlpha" type="matrix" values="0 0 0 0 0 0 0 0 0 0 0 0 0 0 0 0 0 0 127 0" result="hardAlpha"/>
<feOffset/>
<feGaussianBlur stdDeviation="7.5"/>
<feComposite in2="hardAlpha" operator="out"/>
<feColorMatrix type="matrix" values="0 0 0 0 0 0 0 0 0 0 0 0 0 0 0 0 0 0 0.2 0"/>
<feBlend mode="normal" in2="BackgroundImageFix" result="effect1_dropShadow_214_63"/>
<feBlend mode="normal" in="SourceGraphic" in2="effect1_dropShadow_214_63" result="shape"/>
</filter>
</defs>
</svg>
