<svg width="570" height="457" viewBox="0 0 570 457" fill="none" xmlns="http://www.w3.org/2000/svg">
<circle cx="37.0368" cy="438.966" r="4.01667" transform="rotate(41.1195 37.0368 438.966)" fill="#F3F2F2"/>
<circle cx="37.361" cy="427.252" r="4.01667" transform="rotate(41.1195 37.361 427.252)" fill="#F3F2F2"/>
<circle cx="27.8493" cy="418.95" r="4.01667" transform="rotate(41.1195 27.8493 418.95)" fill="#F3F2F2"/>
<circle cx="15.8532" cy="420.476" r="4.01667" transform="rotate(41.1195 15.8532 420.476)" fill="#F3F2F2"/>
<path fill-rule="evenodd" clip-rule="evenodd" d="M30.5595 428.933C33.4642 434.006 32.5914 442.75 28.7473 447.154C25.8818 450.436 20.8975 450.774 17.6149 447.909C15.1282 445.738 12.1046 443.098 9.61787 440.928C6.33529 438.062 5.99716 433.078 8.86275 429.795C12.7068 425.392 21.253 423.346 26.6713 425.539C27.4645 425.86 28.2185 426.317 28.8993 426.911C29.5802 427.505 30.1343 428.191 30.5595 428.933Z" fill="#F3F2F2"/>
<circle cx="476.454" cy="268.591" r="4.01667" transform="rotate(72.0735 476.454 268.591)" fill="#F3F2F2"/>
<circle cx="482.758" cy="258.713" r="4.01667" transform="rotate(72.0735 482.758 258.713)" fill="#F3F2F2"/>
<circle cx="478.872" cy="246.701" r="4.01667" transform="rotate(72.0735 478.872 246.701)" fill="#F3F2F2"/>
<circle cx="467.801" cy="241.84" r="4.01667" transform="rotate(72.0735 467.801 241.84)" fill="#F3F2F2"/>
<path fill-rule="evenodd" clip-rule="evenodd" d="M476.059 256.655C475.941 262.5 470.695 269.549 465.133 271.349C460.988 272.69 456.539 270.416 455.198 266.27C454.182 263.13 452.947 259.311 451.931 256.17C450.589 252.024 452.863 247.576 457.009 246.235C462.571 244.436 470.952 247.077 474.47 251.745C474.985 252.428 475.397 253.207 475.675 254.067C475.954 254.927 476.076 255.8 476.059 256.655Z" fill="#F3F2F2"/>
<circle cx="312.586" cy="348.921" r="8.21591" transform="rotate(26.1318 312.586 348.921)" fill="#F3F2F2"/>
<circle cx="307.027" cy="325.605" r="8.21591" transform="rotate(26.1318 307.027 325.605)" fill="#F3F2F2"/>
<circle cx="283.847" cy="314.232" r="8.21591" transform="rotate(26.1318 283.847 314.232)" fill="#F3F2F2"/>
<circle cx="260.953" cy="323.591" r="8.21591" transform="rotate(26.1318 260.953 323.591)" fill="#F3F2F2"/>
<path fill-rule="evenodd" clip-rule="evenodd" d="M297.713 337.223C301.233 344.986 302.964 355.52 302.106 364C301.919 365.856 301.404 367.711 300.534 369.484C296.608 377.486 286.939 380.791 278.937 376.865C272.876 373.891 265.505 370.275 259.443 367.302C251.441 363.376 248.137 353.707 252.062 345.705C252.932 343.932 254.084 342.39 255.437 341.105C261.619 335.237 271.009 330.158 279.303 328.191C282.817 327.357 286.631 327.692 290.126 329.407C293.622 331.122 296.221 333.933 297.713 337.223Z" fill="#F3F2F2"/>
<circle cx="550.586" cy="52.9215" r="8.21591" transform="rotate(26.1318 550.586 52.9215)" fill="#F3F2F2"/>
<circle cx="545.027" cy="29.605" r="8.21591" transform="rotate(26.1318 545.027 29.605)" fill="#F3F2F2"/>
<circle cx="521.847" cy="18.232" r="8.21591" transform="rotate(26.1318 521.847 18.232)" fill="#F3F2F2"/>
<circle cx="498.953" cy="27.5914" r="8.21591" transform="rotate(26.1318 498.953 27.5914)" fill="#F3F2F2"/>
<path fill-rule="evenodd" clip-rule="evenodd" d="M535.713 41.2226C539.233 48.9855 540.964 59.5197 540.106 68.0002C539.919 69.8565 539.404 71.7114 538.534 73.4842C534.608 81.4861 524.939 84.7905 516.937 80.865C510.876 77.8912 503.505 74.2753 497.443 71.3016C489.441 67.376 486.137 57.7067 490.062 49.7048C490.932 47.932 492.084 46.3896 493.437 45.105C499.619 39.2367 509.009 34.1581 517.303 32.1908C520.817 31.3573 524.631 31.6923 528.126 33.4072C531.622 35.1221 534.221 37.9332 535.713 41.2226Z" fill="#F3F2F2"/>
</svg>
