<svg width="120" height="120" viewBox="0 0 120 120" fill="none" xmlns="http://www.w3.org/2000/svg">
<g filter="url(#filter0_d_188_833)">
<rect x="15" y="15" width="90" height="90" rx="28" fill="black"/>
<path d="M34.9945 79.6875V79.8375H35.1445H51.6972H51.8472V79.6875V79.1406V78.9906H51.6972H50.9577C49.948 78.9906 49.0965 78.8468 48.3989 78.5647C47.7434 78.2843 47.2581 77.8674 46.9348 77.3149C46.6104 76.7603 46.4434 76.0592 46.4434 75.2031V64.6344H49.877C52.6939 64.6344 55.0813 64.3051 57.0354 63.6421L57.0369 63.6415C57.8864 63.3431 58.664 63.0006 59.3694 62.6136V75.2031C59.3694 76.0592 59.2024 76.7603 58.878 77.3149C58.5559 77.8654 58.0531 78.2829 57.3584 78.5641L57.3584 78.5641L57.3558 78.5652C56.6975 78.8465 55.8658 78.9906 54.855 78.9906H54.1156H53.9656V79.1406V79.6875V79.8375H54.1156H84.6043H84.7482L84.7542 79.6937L85.1524 70.1234L85.1589 69.9672H85.0025H84.4337H84.2928L84.284 70.1078L84.1702 71.9124L84.1702 71.9125C84.0572 73.724 83.7186 75.1402 83.164 76.1711L83.1639 76.1711L83.162 76.1749C82.65 77.1946 81.8095 77.9175 80.6286 78.3433C79.4381 78.7725 77.827 78.9906 75.7876 78.9906H65.4144V59.6578H79.5418H79.6918V59.5078V58.9609V58.8109H79.5418H65.4144V41.3375H74.3656C76.2911 41.3375 77.7863 41.5557 78.8607 41.9831L78.8623 41.9838C79.9662 42.4083 80.7713 43.1304 81.2849 44.1532C81.8031 45.1854 82.1231 46.603 82.2362 48.4156L82.2362 48.4157L82.35 50.2204L82.3589 50.3609H82.4997H83.0685H83.224L83.2184 50.2056L82.8771 40.6353L82.872 40.4906H82.7272H54.1156H53.9656V40.6242C53.0732 40.5351 52.1274 40.4906 51.1284 40.4906H35.1445H34.9945V40.6406V41.1875V41.3375H35.1445H35.884C36.8948 41.3375 37.7264 41.4816 38.3847 41.7629L38.3846 41.7632L38.3936 41.7664C39.0883 42.0125 39.589 42.3946 39.9091 42.9075C40.2317 43.4244 40.3983 44.0875 40.3983 44.9063V75.2031C40.3983 76.0592 40.2314 76.7603 39.9069 77.3149C39.5848 77.8654 39.082 78.2829 38.3874 78.5641L38.3874 78.5641L38.3847 78.5652C37.7264 78.8465 36.8948 78.9906 35.884 78.9906H35.1445H34.9945V79.1406V79.6875ZM56.588 61.1613L56.5875 61.1619C55.8476 62.051 54.8847 62.7109 53.6941 63.1401C52.5015 63.5701 51.0409 63.7875 49.3082 63.7875H46.4434V41.3375H50.1614C52.2687 41.3375 53.9457 41.7176 55.2042 42.4649L55.2042 42.4649L55.2069 42.4665C56.4591 43.1747 57.3672 44.3273 57.9263 45.9398L57.9262 45.9398L57.9277 45.9437C58.5255 47.5242 58.8281 49.6368 58.8281 52.2891C58.8281 54.3588 58.6392 56.1322 58.2639 57.6115L58.2632 57.6143C57.9262 59.0544 57.3663 60.2348 56.588 61.1613Z" fill="white" stroke="white" stroke-width="0.3"/>
</g>
<defs>
<filter id="filter0_d_188_833" x="0" y="0" width="120" height="120" filterUnits="userSpaceOnUse" color-interpolation-filters="sRGB">
<feFlood flood-opacity="0" result="BackgroundImageFix"/>
<feColorMatrix in="SourceAlpha" type="matrix" values="0 0 0 0 0 0 0 0 0 0 0 0 0 0 0 0 0 0 127 0" result="hardAlpha"/>
<feOffset/>
<feGaussianBlur stdDeviation="7.5"/>
<feComposite in2="hardAlpha" operator="out"/>
<feColorMatrix type="matrix" values="0 0 0 0 0 0 0 0 0 0 0 0 0 0 0 0 0 0 0.2 0"/>
<feBlend mode="normal" in2="BackgroundImageFix" result="effect1_dropShadow_188_833"/>
<feBlend mode="normal" in="SourceGraphic" in2="effect1_dropShadow_188_833" result="shape"/>
</filter>
</defs>
</svg>
