<svg width="188" height="64" viewBox="0 0 188 64" fill="none" xmlns="http://www.w3.org/2000/svg">
<path d="M0.0960001 27H6.54V18.108H9.672C15.324 18.108 20.256 15.3 20.256 8.928C20.256 2.304 15.396 0.215999 9.492 0.215999H0.0960001V27ZM6.54 13.032V5.292H9.168C12.264 5.292 13.992 6.228 13.992 8.928C13.992 11.556 12.48 13.032 9.348 13.032H6.54ZM24.8108 27H42.1988V21.6H31.2548V15.912H40.2188V10.512H31.2548V5.544H41.8028V0.215999H24.8108V27ZM52.6706 27H59.1146V5.544H66.3866V0.215999H45.4346V5.544H52.6706V27ZM70.514 27H87.902V21.6H76.958V15.912H85.922V10.512H76.958V5.544H87.506V0.215999H70.514V27ZM97.7978 27H105.502L113.566 0.215999H107.014L103.99 12.42C103.234 15.3 102.658 18.072 101.902 20.988H101.722C100.93 18.072 100.426 15.3 99.6338 12.42L96.5738 0.215999H89.7697L97.7978 27ZM116.323 27H133.711V21.6H122.767V15.912H131.731V10.512H122.767V5.544H133.315V0.215999H116.323V27ZM145.442 5.292H148.322C151.382 5.292 153.002 6.12 153.002 8.64C153.002 11.16 151.382 12.492 148.322 12.492H145.442V5.292ZM160.67 27L154.694 16.38C157.466 15.084 159.302 12.564 159.302 8.64C159.302 2.16 154.55 0.215999 148.826 0.215999H138.998V27H145.442V17.568H148.538L153.47 27H160.67ZM0.0960001 63H5.856V53.82C5.856 51.156 5.352 47.16 5.028 44.532H5.172L7.332 50.94L10.968 60.732H14.496L18.096 50.94L20.328 44.532H20.472C20.148 47.16 19.644 51.156 19.644 53.82V63H25.512V36.216H18.528L14.424 47.772C13.92 49.32 13.488 51.012 12.948 52.668H12.768C12.264 51.012 11.832 49.32 11.292 47.772L7.044 36.216H0.0960001V63ZM31.6663 63H49.0543V57.6H38.1103V51.912H47.0743V46.512H38.1103V41.544H48.6583V36.216H31.6663V63ZM66.4021 63.504C70.1461 63.504 73.4581 62.028 75.3301 60.228V47.7H65.3581V52.956H69.6061V57.276C69.0301 57.708 68.0221 57.96 67.0501 57.96C62.0821 57.96 59.7061 54.864 59.7061 49.536C59.7061 44.316 62.5501 41.22 66.5101 41.22C68.7421 41.22 70.1461 42.12 71.4421 43.308L74.8621 39.204C73.0261 37.368 70.2181 35.712 66.2941 35.712C59.1301 35.712 53.1181 40.824 53.1181 49.752C53.1181 58.824 58.9501 63.504 66.4021 63.504ZM86.2977 51.876L86.8737 49.608C87.5577 46.944 88.2777 43.812 88.9257 41.004H89.0697C89.7897 43.74 90.4737 46.944 91.1937 49.608L91.7697 51.876H86.2977ZM94.5417 63H101.31L92.9937 36.216H85.2897L76.9737 63H83.5257L85.0737 56.844H92.9937L94.5417 63ZM115.761 63.504C119.505 63.504 122.817 62.028 124.689 60.228V47.7H114.717V52.956H118.965V57.276C118.389 57.708 117.381 57.96 116.409 57.96C111.441 57.96 109.065 54.864 109.065 49.536C109.065 44.316 111.909 41.22 115.869 41.22C118.101 41.22 119.505 42.12 120.801 43.308L124.221 39.204C122.385 37.368 119.577 35.712 115.653 35.712C108.489 35.712 102.477 40.824 102.477 49.752C102.477 58.824 108.309 63.504 115.761 63.504ZM130.104 63H136.548V36.216H130.104V63ZM142.69 63H148.81V54.108C148.81 50.868 148.27 47.196 147.982 44.208H148.162L150.79 50.076L157.414 63H163.966V36.216H157.846V45.072C157.846 48.276 158.35 52.128 158.71 54.972H158.53L155.902 49.032L149.242 36.216H142.69V63ZM170.182 63H187.57V57.6H176.626V51.912H185.59V46.512H176.626V41.544H187.174V36.216H170.182V63Z" fill="#333333"/>
</svg>
