<svg width="180" height="63" viewBox="0 0 180 63" fill="none" xmlns="http://www.w3.org/2000/svg">
<path d="M10.252 16.877H3.73047V12.7637H10.252C11.2598 12.7637 12.0801 12.5996 12.7129 12.2715C13.3457 11.9316 13.8086 11.4629 14.1016 10.8652C14.3945 10.2676 14.541 9.59375 14.541 8.84375C14.541 8.08203 14.3945 7.37305 14.1016 6.7168C13.8086 6.06055 13.3457 5.5332 12.7129 5.13477C12.0801 4.73633 11.2598 4.53711 10.252 4.53711H5.55859V26H0.285156V0.40625H10.252C12.2559 0.40625 13.9727 0.769531 15.4023 1.49609C16.8438 2.21094 17.9453 3.20117 18.707 4.4668C19.4688 5.73242 19.8496 7.17969 19.8496 8.80859C19.8496 10.4609 19.4688 11.8906 18.707 13.0977C17.9453 14.3047 16.8438 15.2363 15.4023 15.8926C13.9727 16.5488 12.2559 16.877 10.252 16.877ZM40.6621 21.8867V26H27.0391V21.8867H40.6621ZM28.7617 0.40625V26H23.4883V0.40625H28.7617ZM38.8867 10.8301V14.8379H27.0391V10.8301H38.8867ZM40.6445 0.40625V4.53711H27.0391V0.40625H40.6445ZM55.5332 0.40625V26H50.2773V0.40625H55.5332ZM63.4082 0.40625V4.53711H42.5254V0.40625H63.4082ZM83.5879 21.8867V26H69.9648V21.8867H83.5879ZM71.6875 0.40625V26H66.4141V0.40625H71.6875ZM81.8125 10.8301V14.8379H69.9648V10.8301H81.8125ZM83.5703 0.40625V4.53711H69.9648V0.40625H83.5703ZM95.8926 20.6562L101.922 0.40625H107.793L98.8809 26H95.0137L95.8926 20.6562ZM90.3379 0.40625L96.3496 20.6562L97.2637 26H93.3613L84.502 0.40625H90.3379ZM127.357 21.8867V26H113.734V21.8867H127.357ZM115.457 0.40625V26H110.184V0.40625H115.457ZM125.582 10.8301V14.8379H113.734V10.8301H125.582ZM127.34 0.40625V4.53711H113.734V0.40625H127.34ZM130.434 0.40625H139.979C141.936 0.40625 143.617 0.699219 145.023 1.28516C146.441 1.87109 147.531 2.73828 148.293 3.88672C149.055 5.03516 149.436 6.44727 149.436 8.12305C149.436 9.49414 149.201 10.6719 148.732 11.6562C148.275 12.6289 147.625 13.4434 146.781 14.0996C145.949 14.7441 144.971 15.2598 143.846 15.6465L142.176 16.5254H133.879L133.844 12.4121H140.014C140.939 12.4121 141.707 12.248 142.316 11.9199C142.926 11.5918 143.383 11.1348 143.688 10.5488C144.004 9.96289 144.162 9.2832 144.162 8.50977C144.162 7.68945 144.01 6.98047 143.705 6.38281C143.4 5.78516 142.938 5.32812 142.316 5.01172C141.695 4.69531 140.916 4.53711 139.979 4.53711H135.707V26H130.434V0.40625ZM144.742 26L138.906 14.5918L144.479 14.5566L150.385 25.7539V26H144.742ZM2.69336 36.4062H7.1582L13.7324 55.1973L20.3066 36.4062H24.7715L15.5254 62H11.9395L2.69336 36.4062ZM0.285156 36.4062H4.73242L5.54102 54.7227V62H0.285156V36.4062ZM22.7324 36.4062H27.1973V62H21.9238V54.7227L22.7324 36.4062ZM42.543 40.7832L35.582 62H29.9746L39.4844 36.4062H43.0527L42.543 40.7832ZM48.3262 62L41.3477 40.7832L40.7852 36.4062H44.3887L53.9512 62H48.3262ZM48.0098 52.4727V56.6035H34.4922V52.4727H48.0098ZM76.293 48.623V58.7656C75.8945 59.2461 75.2793 59.7676 74.4473 60.3301C73.6152 60.8809 72.543 61.3555 71.2305 61.7539C69.918 62.1523 68.3301 62.3516 66.4668 62.3516C64.8145 62.3516 63.3086 62.082 61.9492 61.543C60.5898 60.9922 59.418 60.1895 58.4336 59.1348C57.4609 58.0801 56.7109 56.791 56.1836 55.2676C55.6562 53.7324 55.3926 51.9805 55.3926 50.0117V48.4121C55.3926 46.4434 55.6445 44.6914 56.1484 43.1562C56.6641 41.6211 57.3965 40.3262 58.3457 39.2715C59.2949 38.2168 60.4258 37.4141 61.7383 36.8633C63.0508 36.3125 64.5098 36.0371 66.1152 36.0371C68.3418 36.0371 70.1699 36.4004 71.5996 37.127C73.0293 37.8418 74.1191 38.8379 74.8691 40.1152C75.6309 41.3809 76.0996 42.834 76.2754 44.4746H71.1602C71.0312 43.6074 70.7852 42.8516 70.4219 42.207C70.0586 41.5625 69.5371 41.0586 68.8574 40.6953C68.1895 40.332 67.3223 40.1504 66.2559 40.1504C65.377 40.1504 64.5918 40.332 63.9004 40.6953C63.2207 41.0469 62.6465 41.5684 62.1777 42.2598C61.709 42.9512 61.3516 43.8066 61.1055 44.8262C60.8594 45.8457 60.7363 47.0293 60.7363 48.377V50.0117C60.7363 51.3477 60.8652 52.5312 61.123 53.5625C61.3809 54.582 61.7617 55.4434 62.2656 56.1465C62.7812 56.8379 63.4141 57.3594 64.1641 57.7109C64.9141 58.0625 65.7871 58.2383 66.7832 58.2383C67.6152 58.2383 68.3066 58.168 68.8574 58.0273C69.4199 57.8867 69.8711 57.7168 70.2109 57.5176C70.5625 57.3066 70.832 57.1074 71.0195 56.9199V52.3848H66.2031V48.623H76.293ZM90.9531 40.7832L83.9922 62H78.3848L87.8945 36.4062H91.4629L90.9531 40.7832ZM96.7363 62L89.7578 40.7832L89.1953 36.4062H92.7988L102.361 62H96.7363ZM96.4199 52.4727V56.6035H82.9023V52.4727H96.4199ZM123.244 57.8867V62H105.104V57.8867H123.244ZM122.98 39.3418L107.441 62H103.732V58.9766L119.395 36.4062H122.98V39.3418ZM121.17 36.4062V40.5371H103.75V36.4062H121.17ZM132.209 36.4062V62H126.953V36.4062H132.209ZM157.979 36.4062V62H152.705L142.422 44.8438V62H137.148V36.4062H142.422L152.723 53.5801V36.4062H157.979ZM179.74 57.8867V62H166.117V57.8867H179.74ZM167.84 36.4062V62H162.566V36.4062H167.84ZM177.965 46.8301V50.8379H166.117V46.8301H177.965ZM179.723 36.4062V40.5371H166.117V36.4062H179.723Z" fill="#333333"/>
</svg>
