<svg width="32" height="32" viewBox="0 0 32 32" fill="none" xmlns="http://www.w3.org/2000/svg">
<path d="M16.5519 2.75867C8.62938 2.75867 2.20703 7.82253 2.20703 14.069C2.20703 18.1075 4.892 21.6511 8.93089 23.652C8.71117 24.4098 7.51889 28.5271 7.47145 28.8505C7.47145 28.8505 7.44289 29.0936 7.60027 29.1863C7.75765 29.2789 7.94276 29.2069 7.94276 29.2069C8.39407 29.1439 13.1763 25.7847 14.004 25.2014C14.8309 25.3185 15.6823 25.3794 16.5519 25.3794C24.4743 25.3794 30.8967 20.3156 30.8967 14.069C30.8967 7.82253 24.4743 2.75867 16.5519 2.75867Z" fill="black"/>
<path d="M8.62244 18.0173C8.16603 18.0173 7.79485 17.6628 7.79485 17.2269V12.3104H6.50354C6.05568 12.3104 5.69141 11.9468 5.69141 11.5C5.69141 11.0533 6.05582 10.6897 6.50354 10.6897H10.7413C11.1892 10.6897 11.5535 11.0533 11.5535 11.5C11.5535 11.9468 11.1891 12.3104 10.7413 12.3104H9.45003V17.2269C9.45003 17.6628 9.07885 18.0173 8.62244 18.0173ZM15.8793 18.0065C15.5342 18.0065 15.2702 17.8664 15.1906 17.641L14.7808 16.5682L12.2572 16.568L11.8471 17.6416C11.7678 17.8665 11.504 18.0065 11.1589 18.0065C10.9773 18.0067 10.7979 17.9678 10.6328 17.8923C10.4046 17.7871 10.1853 17.4977 10.4366 16.7171L12.4162 11.5067C12.5557 11.1104 12.9793 10.7021 13.5183 10.6898C14.0589 10.702 14.4824 11.1104 14.6222 11.5075L16.6009 16.7156C16.8528 17.498 16.6335 17.7875 16.4053 17.8925C16.2402 17.9678 16.0608 18.0067 15.8793 18.0065C15.8793 18.0065 15.8791 18.0065 15.8793 18.0065ZM14.3456 15.1022L13.519 12.754L12.6924 15.1022H14.3456ZM17.9328 17.8966C17.4954 17.8966 17.1397 17.5562 17.1397 17.138V11.5173C17.1397 11.0609 17.5187 10.6897 17.9845 10.6897C18.4503 10.6897 18.8293 11.0609 18.8293 11.5173V16.3794H20.588C21.0253 16.3794 21.3811 16.7198 21.3811 17.138C21.3811 17.5562 21.0253 17.8966 20.588 17.8966H17.9328ZM22.5306 18.0065C22.0742 18.0065 21.703 17.6354 21.703 17.1789V11.5173C21.703 11.0609 22.0742 10.6897 22.5306 10.6897C22.987 10.6897 23.3582 11.0609 23.3582 11.5173V13.296L25.6671 10.9871C25.7859 10.8683 25.9491 10.8029 26.1262 10.8029C26.3328 10.8029 26.5402 10.892 26.6957 11.0474C26.8406 11.1922 26.9271 11.3785 26.939 11.572C26.951 11.7672 26.886 11.9461 26.7564 12.0759L24.8704 13.9616L26.9075 16.6603C26.9733 16.7469 27.0212 16.8457 27.0485 16.9509C27.0758 17.0562 27.0819 17.1658 27.0664 17.2734C27.0517 17.3811 27.0157 17.4848 26.9606 17.5785C26.9055 17.6722 26.8323 17.754 26.7453 17.8192C26.6022 17.928 26.4273 17.9867 26.2475 17.9862C26.1193 17.9868 25.9927 17.9574 25.8779 17.9003C25.7631 17.8431 25.6633 17.7599 25.5864 17.6573L23.6456 15.0857L23.3584 15.3729V17.1785C23.3582 17.398 23.2709 17.6085 23.1157 17.7637C22.9605 17.9189 22.7501 18.0062 22.5306 18.0065Z" fill="#FFE812"/>
</svg>
